<?xml version="1.0" encoding="utf-8"?>
<!-- Generator: Adobe Illustrator 25.2.0, SVG Export Plug-In . SVG Version: 6.00 Build 0)  -->
<svg version="1.1" id="Layer_1" xmlns="http://www.w3.org/2000/svg" xmlns:xlink="http://www.w3.org/1999/xlink" x="0px" y="0px"
	 viewBox="0 0 1920 1080" style="enable-background:new 0 0 1920 1080;" xml:space="preserve">
<style type="text/css">
	.st0{fill:none;stroke:#FFFFFF;stroke-width:5;stroke-miterlimit:10;}
</style>
<g>
	<path class="st0" d="M335,388.8v264.9l156-264.9h64v264.9l156-264.9h61.5L566.7,738.1h-64.9V475.2L346.9,738.1H282V388.8H335z"/>
	<path class="st0" d="M803,689.3c-34.8-34.8-52.2-76.8-52.2-126c0-49.2,17.4-91.1,52.2-126c34.8-34.8,76.8-52.2,126-52.2
		c49.2,0,91.1,17.4,126,52.2c34.8,34.8,52.2,76.8,52.2,126c0,49.2-17.4,91.1-52.2,126c-34.8,34.8-76.8,52.2-126,52.2
		C879.8,741.5,837.8,724.1,803,689.3z M840.6,474.9c-24.4,24.4-36.6,53.9-36.6,88.4c0,34.5,12.2,64,36.6,88.4s53.9,36.6,88.4,36.6
		c34.5,0,64-12.2,88.4-36.6s36.6-53.9,36.6-88.4c0-34.5-12.2-64-36.6-88.4s-53.9-36.6-88.4-36.6C894.4,438.3,865,450.5,840.6,474.9z
		"/>
	<path class="st0" d="M1394.5,738.1h-59.8l-76.4-147.2h-59.8v147.2h-53V388.8h128.9c27.8,0,51.6,9.9,71.3,29.8
		c19.9,19.7,29.8,43.5,29.8,71.5c0,20.5-5.8,39.2-17.3,56.2c-11.2,16.6-26,28.8-44.2,36.6L1394.5,738.1z M1274.4,537.9
		c13.2,0,24.5-4.7,33.9-14.2c9.3-9.3,13.9-20.5,13.9-33.7c0-13.3-4.6-24.7-13.9-34.2c-9.4-9.4-20.8-14.2-33.9-14.2h-75.9v96.2
		H1274.4z"/>
	<path class="st0" d="M1669.9,388.8l-139.6,173.8l144.5,175.5H1606l-109.6-133.3l-16.4,20.3v113h-53V388.8h53v151.6l122.1-151.6
		H1669.9z"/>
</g>
<line class="st0" x1="281.5" y1="563.5" x2="1530.5" y2="562.5"/>
</svg>
