<svg xmlns="http://www.w3.org/2000/svg" viewBox="0 0 56.56 71"><defs><style>.cls-1{fill:#fff;}</style></defs><g id="Layer_2" data-name="Layer 2"><g id="Layer_1-2" data-name="Layer 1"><path class="cls-1" d="M5.23,71a.63.63,0,0,1,0-.13c.15-.85,0-1.94.53-2.48s1.53-.3,2.33-.35a18.25,18.25,0,0,0,14.36-8,21.46,21.46,0,0,0,3.77-10.39,29,29,0,0,0,.16-4.07c-.64,1.06-1.23,2.15-1.92,3.18a13.61,13.61,0,0,1-7.09,5.78A13.13,13.13,0,0,1,.06,41,18.84,18.84,0,0,1,5.42,29.68a72.39,72.39,0,0,1,6-5.61,69.58,69.58,0,0,0,9.83-9.81A32.21,32.21,0,0,0,27.87.52c0-.2.3-.35.46-.52.15.15.4.28.44.46C30.46,8,34.7,13.93,40.18,19.11c2.62,2.48,5.31,4.89,7.92,7.37a31.58,31.58,0,0,1,6.41,8c2.15,4.1,2.81,8.36,1,12.77C52.14,55.69,41,58.09,34.73,51.32a47.46,47.46,0,0,1-3.66-5.08c-.14-.2-.26-.42-.38-.63h-.22c.15,1.82.17,3.65.49,5.42a34,34,0,0,0,1.56,6.07c2.27,5.94,6.82,9.19,12.93,10.4,1.79.35,3.62.48,5.53.73L51.49,71Z"/></g></g></svg>