<?xml version="1.0" encoding="utf-8"?>
<!-- Generator: Adobe Illustrator 25.2.0, SVG Export Plug-In . SVG Version: 6.00 Build 0)  -->
<svg version="1.1" id="Layer_1" xmlns="http://www.w3.org/2000/svg" xmlns:xlink="http://www.w3.org/1999/xlink" x="0px" y="0px"
	 viewBox="0 0 319.5 223.8" style="enable-background:new 0 0 319.5 223.8;" xml:space="preserve">
<style type="text/css">
	.menu0{fill:#FFFFFF;}
</style>
<g id="Layer_2_1_">
	<g id="Layer_1-2">
		<path class="menu0" d="M159.3,95.8c-46.8,0-93.6,0-140.3,0c-2.6-0.1-5.2,0.2-7.8,0.8c-7.4,2.1-11.9,9.2-11.2,17
			c0.7,7.5,6.6,13.4,14.1,14.1c1.7,0.2,3.5,0.2,5.2,0.2c93.6,0,187.1,0,280.7,0c2.7,0.1,5.5-0.2,8.1-0.8c7.4-2.1,11.9-9.1,11.1-16.9
			c-0.7-7.5-6.6-13.4-14.1-14.1c-1.9-0.2-3.7-0.2-5.6-0.2L159.3,95.8z"/>
		<path class="menu0" d="M199.7,32.1h102.5c10.1,0,17.3-6.7,17.2-16.1c-0.1-9.2-7.3-16-17.1-16c-68.5,0-137,0-205.4,0
			c-9.3,0-16.2,5.8-17.2,14.4c-0.8,8,4.4,15.4,12.3,17.3c1.7,0.3,3.5,0.5,5.2,0.4C131.4,32.1,165.6,32.1,199.7,32.1z"/>
		<path class="menu0" d="M231.5,191.7h-70.7c-9.8,0-16.7,6.5-16.9,15.6c-0.1,9.4,6.8,16.4,16.6,16.4c47.4,0,94.8,0,142.1,0
			c9.8,0,16.8-7,16.7-16.3c-0.1-9.1-7.1-15.7-16.8-15.7L231.5,191.7z"/>
	</g>
</g>
</svg>
