<svg xmlns="http://www.w3.org/2000/svg" viewBox="0 0 57.56 72.22"><defs><style>.cls-1{stroke:#000;stroke-miterlimit:10;}</style></defs><g id="Layer_2" data-name="Layer 2"><g id="Layer_1-2" data-name="Layer 1"><path class="cls-1" d="M5.73,71.72a.49.49,0,0,1,0-.13c.15-.85,0-1.94.53-2.47s1.53-.31,2.33-.35a18.24,18.24,0,0,0,14.36-8,21.46,21.46,0,0,0,3.77-10.39,28.92,28.92,0,0,0,.16-4.07c-.64,1.06-1.23,2.15-1.92,3.18a13.56,13.56,0,0,1-7.09,5.78A13.13,13.13,0,0,1,.56,41.69,18.9,18.9,0,0,1,5.92,30.4a74,74,0,0,1,6-5.6A69.65,69.65,0,0,0,21.75,15,32.15,32.15,0,0,0,28.37,1.24c0-.19.3-.34.46-.52.15.16.4.29.44.46C31,8.7,35.2,14.65,40.68,19.84c2.62,2.47,5.31,4.88,7.92,7.37a31.36,31.36,0,0,1,6.41,8c2.15,4.1,2.81,8.37,1,12.77-3.4,8.44-14.58,10.84-20.81,4.08A47.59,47.59,0,0,1,31.57,47c-.14-.2-.26-.42-.38-.62a1.14,1.14,0,0,0-.22,0c.15,1.81.17,3.64.49,5.41A33.9,33.9,0,0,0,33,57.83C35.29,63.76,39.84,67,46,68.22c1.79.35,3.62.49,5.53.74L52,71.72Z"/></g></g></svg>