<svg id="Layer_1" data-name="Layer 1" xmlns="http://www.w3.org/2000/svg" viewBox="0 0 1403.73 360"><defs><style>.cls-2{fill:none;stroke:#000;stroke-miterlimit:10;stroke-width:7px;}</style></defs><path class="cls-2" d="M373,341V605.89L529,341h64V605.89L748.94,341h61.52L604.65,690.37H539.71V427.43L384.92,690.37H320V341Z" transform="translate(-316.48 -334)"/><path class="cls-2" d="M991.4,392.76q36.28,6.76,63.94,34.43Q1092,463.81,1092,515.56t-36.62,88.38q-27.64,27.66-63.94,34.42Z" transform="translate(-316.48 -334)"/><path class="cls-2" d="M939.17,393.44l2.24,244.7q-35.6-7-62.83-34.2Q842,567.32,842,515.56t36.62-88.37Q905,400.82,939.17,393.44Z" transform="translate(-316.48 -334)"/><path class="cls-2" d="M1432.53,690.37h-59.81L1296.3,543.15h-59.81V690.37h-53V341h128.9q41.76,0,71.29,29.79,29.79,29.54,29.79,71.53a97.39,97.39,0,0,1-17.34,56.15A99.83,99.83,0,0,1,1352,535.09Zm-120.12-200.2a47.94,47.94,0,0,0,47.86-47.85,47,47,0,0,0-13.92-34.18A46.29,46.29,0,0,0,1312.41,394h-75.92v96.19Z" transform="translate(-316.48 -334)"/><path class="cls-2" d="M1588.58,539.5H1465V690.37h53v-113l16.36-20.27L1644,690.37h68.84ZM1707.92,341h-67.87L1527.73,480.5h68.12ZM1518,341h-53V480.5h53Z" transform="translate(-316.48 -334)"/><path class="cls-2" d="M320,385.5A93.25,93.25,0,0,0,373,459" transform="translate(-316.48 -334)"/><path class="cls-2" d="M448.23,479.12a106.7,106.7,0,0,1,13.22,15.42A102.3,102.3,0,0,1,478,533" transform="translate(-316.48 -334)"/><path class="cls-2" d="M539.71,631a45.39,45.39,0,0,0,53.22-25" transform="translate(-316.48 -334)"/><path class="cls-2" d="M641.48,523.46c10.25-12.52,25.82-18.4,40-15,12.28,3,19.27,11.89,21.47,15" transform="translate(-316.48 -334)"/><circle class="cls-2" cx="650.52" cy="180" r="176.5"/><path class="cls-2" d="M1341,481a116.54,116.54,0,0,0-14.11,10.22c-23.71,20.16-28.83,42.71-29.89,56" transform="translate(-316.48 -334)"/><path class="cls-2" d="M1388.76,606a89.65,89.65,0,0,1-10.26,17.5,91,91,0,0,1-27.82,24.4" transform="translate(-316.48 -334)"/><path class="cls-2" d="M1236.49,647.9a58.8,58.8,0,0,1-36-8.4,56.91,56.91,0,0,1-17-16.5" transform="translate(-316.48 -334)"/></svg>